<?xml version="1.0" encoding="UTF-8" standalone="no"?>
<!-- Created with Inkscape (http://www.inkscape.org/) -->
<svg
   xmlns:dc="http://purl.org/dc/elements/1.1/"
   xmlns:cc="http://web.resource.org/cc/"
   xmlns:rdf="http://www.w3.org/1999/02/22-rdf-syntax-ns#"
   xmlns:svg="http://www.w3.org/2000/svg"
   xmlns="http://www.w3.org/2000/svg"
   xmlns:sodipodi="http://inkscape.sourceforge.net/DTD/sodipodi-0.dtd"
   xmlns:inkscape="http://www.inkscape.org/namespaces/inkscape"
   width="64.000000px"
   height="64.000000px"
   id="svg2"
   sodipodi:version="0.32"
   inkscape:version="0.42"
   sodipodi:docbase="/home/egore/.icons/Nerdy-Lines/scaleable/apps"
   sodipodi:docname="gnome-settings.svg"
   inkscape:export-filename="/home/egore/.icons/Nerdy-Lines/128x128/filesystems/gnome-fs-directory.png"
   inkscape:export-xdpi="180.00000"
   inkscape:export-ydpi="180.00000">
  <defs
     id="defs4" />
  <sodipodi:namedview
     id="base"
     pagecolor="#ffffff"
     bordercolor="#666666"
     borderopacity="1.0"
     inkscape:pageopacity="0.0"
     inkscape:pageshadow="2"
     inkscape:zoom="8.1875000"
     inkscape:cx="32.000000"
     inkscape:cy="32.000000"
     inkscape:document-units="px"
     inkscape:current-layer="layer1"
     inkscape:window-width="1024"
     inkscape:window-height="693"
     inkscape:window-x="0"
     inkscape:window-y="25" />
  <metadata
     id="metadata7">
    <rdf:RDF>
      <cc:Work
         rdf:about="">
        <dc:format>image/svg+xml</dc:format>
        <dc:type
           rdf:resource="http://purl.org/dc/dcmitype/StillImage" />
        <dc:title>gnome-settings</dc:title>
        <dc:date>2005-10-28</dc:date>
        <dc:creator>
          <cc:Agent>
            <dc:title>Christoph Brill</dc:title>
          </cc:Agent>
        </dc:creator>
        <cc:license
           rdf:resource="http://creativecommons.org/licenses/by-nc-nd/2.0/" />
      </cc:Work>
      <cc:License
         rdf:about="http://creativecommons.org/licenses/by-nc-nd/2.0/">
        <cc:permits
           rdf:resource="http://web.resource.org/cc/Reproduction" />
        <cc:permits
           rdf:resource="http://web.resource.org/cc/Distribution" />
        <cc:requires
           rdf:resource="http://web.resource.org/cc/Notice" />
        <cc:requires
           rdf:resource="http://web.resource.org/cc/Attribution" />
        <cc:prohibits
           rdf:resource="http://web.resource.org/cc/CommercialUse" />
      </cc:License>
    </rdf:RDF>
  </metadata>
  <g
     inkscape:label="Ebene 1"
     inkscape:groupmode="layer"
     id="layer1">
    <path
       style="opacity:1.0000000;fill:#000000;fill-opacity:0.50196081;stroke:none;stroke-width:1.0000000;stroke-linecap:round;stroke-linejoin:bevel;stroke-miterlimit:4.0000000;stroke-dasharray:none;stroke-opacity:0.50196081"
       d="M 14.013488,1.3011418 C 12.149746,1.8225713 10.382911,2.5842525 8.9509886,3.9261415 L 10.950989,5.8948915 C 9.7723726,6.5125645 8.8392616,7.4078985 7.9197386,8.4573915 L 6.1072386,6.1761415 C 4.7558946,7.2873025 3.6500546,8.4769105 3.0759886,10.019892 L 5.5134886,11.707392 C 4.8522106,12.550429 4.4469236,13.574012 4.0447386,14.676142 L 2.7634886,14.113642 L 2.7634886,18.144892 L 3.5759886,17.957392 C 3.3661896,18.857856 3.3153306,20.033063 3.4509886,21.019892 L 2.7322386,21.113642 L 2.8259886,24.926142 L 3.9197386,24.332392 C 3.8826686,25.434372 4.0323736,27.316776 4.5134886,28.332392 L 2.6697386,28.426142 L 2.8259886,32.988642 L 5.9197386,31.926142 C 6.2509766,33.050674 6.8515656,33.981723 7.7009886,35.019892 L 5.3259886,36.707392 C 5.9477526,38.330352 7.2780826,39.523639 8.7634886,40.801142 L 11.013489,37.957392 C 11.878927,38.852467 12.990091,39.501523 14.200988,40.051142 L 12.982238,42.269892 C 14.570624,43.505485 16.743281,43.890555 18.763488,44.176142 L 19.044738,41.457392 C 20.494970,41.915108 21.782006,41.916726 23.232238,41.769892 L 23.294738,44.582392 C 25.813373,44.739104 28.161903,44.204663 30.075988,43.238642 L 29.075988,40.551142 C 30.795790,40.077410 32.444256,39.441925 33.732238,38.363642 L 35.013488,40.801142 C 35.470286,40.476058 35.852945,40.149744 36.263488,39.832392 C 35.899749,40.267545 35.509836,40.663297 35.232238,41.176142 L 33.075988,40.019892 C 32.184406,41.097327 31.706771,42.183366 31.419738,43.519892 L 33.857238,44.457392 C 33.387600,45.520855 33.031989,46.581428 32.950988,47.644892 L 30.669738,47.207392 C 30.515919,48.630282 30.695143,50.152116 31.232238,51.488642 L 33.607238,50.394892 C 33.841634,51.473173 34.246135,52.448996 34.825988,53.613642 L 32.294738,54.144892 C 32.423862,55.414811 33.140044,56.946566 33.700988,57.957392 L 36.013488,56.676142 C 36.425553,57.581694 37.114488,58.489339 38.044738,59.394892 L 36.263488,60.613642 C 37.345859,61.964986 38.944180,62.875940 40.544738,63.363642 L 41.357238,61.582392 C 42.929007,62.177061 44.417854,62.342271 46.075988,62.332392 L 45.700988,63.707392 L 51.982238,63.926142 L 51.669738,61.926142 C 52.719230,61.763293 53.917973,61.107177 54.794738,60.426142 L 56.325988,62.738642 C 58.180702,61.617602 59.325826,60.221617 60.575988,58.582392 L 58.294738,57.582392 C 59.167412,56.456412 59.502750,55.778257 59.857238,54.738642 L 61.607238,55.988642 C 62.470034,54.426328 63.161493,52.872550 63.419738,51.051142 L 61.357238,50.613642 C 61.682941,49.310843 61.900859,47.651669 61.794738,46.176142 L 63.638488,46.207392 C 63.629458,44.348588 63.275932,42.330967 62.575988,40.644892 L 59.982238,41.769892 C 59.335780,40.620064 58.613927,39.668013 57.794738,38.863642 L 59.919738,37.238642 C 58.487817,35.485114 56.970980,33.801258 55.107238,32.738642 L 53.982238,34.957392 C 52.779774,34.449086 51.568795,34.283878 50.107238,34.207392 L 50.732238,31.769892 C 49.944307,31.556452 49.024715,31.394695 48.107238,31.332392 C 47.189761,31.270089 46.270169,31.301512 45.482238,31.519892 L 45.669738,33.832392 C 44.447516,33.937665 43.235709,34.488476 42.013488,35.457392 L 40.513488,32.957392 C 40.047210,33.298957 39.628276,33.673951 39.200988,34.051142 C 39.584008,33.591403 39.959019,33.145286 40.325988,32.488642 L 42.294738,34.207392 C 43.454444,33.005775 44.256060,31.372081 44.638488,29.738642 L 41.794738,29.332392 C 42.240529,28.168594 42.756902,26.567783 42.857238,25.144892 L 45.607238,26.176142 C 45.957634,24.064033 46.223328,21.499616 45.450988,19.301142 L 42.763488,19.801142 C 42.778306,18.335493 42.548105,16.946905 42.044738,15.394892 L 44.732238,15.144892 C 44.349809,13.022904 43.454444,10.914036 42.294738,9.0511415 L 39.357238,10.832392 C 38.710777,9.6875039 37.825293,8.6318235 36.919738,7.8323915 L 39.607238,5.8636415 C 38.822624,4.4596605 37.349245,3.2477305 35.700988,2.7073915 L 34.232238,5.1448915 C 33.305730,3.9901245 32.364431,3.0939735 30.919738,2.4573915 L 17.419738,2.5198915 C 16.533095,2.8546225 15.813766,3.3709545 15.013488,4.0511415 L 14.013488,1.3011418 z M 22.669738,14.551142 C 27.220578,14.551142 30.919738,18.250302 30.919738,22.801142 C 30.919738,27.351982 27.220578,31.019892 22.669738,31.019892 C 18.118899,31.019891 14.419738,27.351982 14.419738,22.801142 C 14.419738,18.250302 18.118898,14.551142 22.669738,14.551142 z M 37.982238,35.363642 C 37.766071,35.634579 37.509502,35.871026 37.325988,36.176142 L 39.013488,37.426142 C 38.642224,37.637183 38.284651,37.966199 37.919738,38.238642 C 38.175778,37.945361 38.475395,37.711875 38.700988,37.363642 L 37.138488,36.176142 C 37.446301,35.892390 37.701645,35.626646 37.982238,35.363642 z M 47.232238,43.488642 C 49.962740,43.488641 52.169738,45.695638 52.169738,48.426142 C 52.169738,51.156646 49.962742,53.394892 47.232238,53.394892 C 44.501733,53.394893 42.294738,51.156646 42.294738,48.426142 C 42.294739,45.695638 44.501734,43.488642 47.232238,43.488642 z "
       id="path7141" />
    <path
       style="opacity:1.0000000;fill:#c4b89e;fill-opacity:1.0000000;stroke:#000000;stroke-width:1.0000000;stroke-linecap:round;stroke-linejoin:bevel;stroke-miterlimit:4.0000000;stroke-dasharray:none;stroke-opacity:1.0000000"
       d="M 45.812500 35.406250 C 39.272775 35.406250 33.968750 40.741523 33.968750 47.281250 C 33.968750 53.820975 39.272774 59.124999 45.812500 59.125000 C 52.352225 59.125000 57.656250 53.820974 57.656250 47.281250 C 57.656250 40.741525 52.352225 35.406249 45.812500 35.406250 z M 45.500000 42.625000 C 48.230502 42.624999 50.437500 44.831996 50.437500 47.562500 C 50.437500 50.293004 48.230504 52.531250 45.500000 52.531250 C 42.769495 52.531251 40.562500 50.293004 40.562500 47.562500 C 40.562501 44.831996 42.769496 42.625000 45.500000 42.625000 z "
       id="path5685" />
    <path
       style="fill:#ffffff;fill-opacity:1.0000000;fill-rule:evenodd;stroke:#000000;stroke-width:1.0000000px;stroke-linecap:butt;stroke-linejoin:miter;stroke-opacity:1.0000000"
       d="M 12.281250 0.43750000 C 10.417508 0.95892948 8.6506717 1.7206107 7.2187500 3.0625000 L 9.2187500 5.0312500 C 8.0401343 5.6489222 7.1070230 6.5442570 6.1875000 7.5937500 L 4.3750000 5.3125000 C 3.0236560 6.4236610 1.9178164 7.6132683 1.3437500 9.1562500 L 3.7812500 10.843750 C 3.1199720 11.686787 2.7146854 12.710370 2.3125000 13.812500 L 1.0312500 13.250000 L 1.0312500 17.281250 L 1.8437500 17.093750 C 1.6339516 17.994214 1.5830917 19.169421 1.7187500 20.156250 L 1.0000000 20.250000 L 1.0937500 24.062500 L 2.1875000 23.468750 C 2.1504299 24.570730 2.3001350 26.453134 2.7812500 27.468750 L 0.93750000 27.562500 L 1.0937500 32.125000 L 4.1875000 31.062500 C 4.5187382 32.187032 5.1193268 33.118081 5.9687500 34.156250 L 3.5937500 35.843750 C 4.2155140 37.466710 5.5458444 38.659997 7.0312500 39.937500 L 9.2812500 37.093750 C 10.146689 37.988825 11.257853 38.637881 12.468750 39.187500 L 11.250000 41.406250 C 12.838386 42.641843 15.011043 43.026913 17.031250 43.312500 L 17.312500 40.593750 C 18.762732 41.051466 20.049768 41.053084 21.500000 40.906250 L 21.562500 43.718750 C 24.081135 43.875462 26.429665 43.341021 28.343750 42.375000 L 27.343750 39.687500 C 29.063552 39.213768 30.712018 38.578283 32.000000 37.500000 L 33.281250 39.937500 C 34.761716 38.883916 36.006468 37.985407 36.968750 36.500000 L 35.406250 35.312500 C 36.637502 34.177490 37.621589 33.364559 38.593750 31.625000 L 40.562500 33.343750 C 41.722206 32.142133 42.523822 30.508439 42.906250 28.875000 L 40.062500 28.468750 C 40.508291 27.304952 41.024664 25.704141 41.125000 24.281250 L 43.875000 25.312500 C 44.225396 23.200391 44.491090 20.635974 43.718750 18.437500 L 41.031250 18.937500 C 41.046068 17.471851 40.815867 16.083263 40.312500 14.531250 L 43.000000 14.281250 C 42.617571 12.159262 41.722206 10.050394 40.562500 8.1875000 L 37.625000 9.9687500 C 36.978539 8.8238615 36.093055 7.7681818 35.187500 6.9687500 L 37.875000 5.0000000 C 37.090386 3.5960191 35.617007 2.3840890 33.968750 1.8437500 L 32.500000 4.2812500 C 31.573492 3.1264831 30.632193 2.2303317 29.187500 1.5937500 L 15.687500 1.6562500 C 14.800857 1.9909808 14.081528 2.5073125 13.281250 3.1875000 L 12.281250 0.43750000 z M 21.312500 3.6562500 C 30.919828 3.6562501 38.718750 11.455172 38.718750 21.062500 C 38.718751 30.669828 30.919828 38.468750 21.312500 38.468750 C 11.705173 38.468750 3.9062500 30.669828 3.9062500 21.062500 C 3.9062500 11.455172 11.705172 3.6562500 21.312500 3.6562500 z "
       id="path1304" />
    <path
       style="fill:#ffffff;fill-opacity:1.0000000;fill-rule:evenodd;stroke:#000000;stroke-width:1.0000000px;stroke-linecap:butt;stroke-linejoin:miter;stroke-opacity:1.0000000"
       d="M 46.375000 30.468750 C 45.457523 30.406447 44.537931 30.437870 43.750000 30.656250 L 43.937500 32.968750 C 42.715278 33.074023 41.503471 33.624834 40.281250 34.593750 L 38.781250 32.093750 C 37.545060 32.999302 36.398121 33.975126 35.593750 35.312500 L 37.281250 36.562500 C 35.857511 37.371809 34.405553 38.639548 33.500000 40.312500 L 31.343750 39.156250 C 30.452168 40.233685 29.974533 41.319724 29.687500 42.656250 L 32.125000 43.593750 C 31.655362 44.657213 31.299751 45.717786 31.218750 46.781250 L 28.937500 46.343750 C 28.783681 47.766640 28.962905 49.288474 29.500000 50.625000 L 31.875000 49.531250 C 32.109396 50.609531 32.513897 51.585354 33.093750 52.750000 L 30.562500 53.281250 C 30.691624 54.551169 31.407806 56.082924 31.968750 57.093750 L 34.281250 55.812500 C 34.693315 56.718052 35.382250 57.625697 36.312500 58.531250 L 34.531250 59.750000 C 35.613621 61.101344 37.211942 62.012298 38.812500 62.500000 L 39.625000 60.718750 C 41.196769 61.313419 42.685616 61.478629 44.343750 61.468750 L 43.968750 62.843750 L 50.250000 63.062500 L 49.937500 61.062500 C 50.986992 60.899651 52.185735 60.243535 53.062500 59.562500 L 54.593750 61.875000 C 56.448463 60.753960 57.593588 59.357975 58.843750 57.718750 L 56.562500 56.718750 C 57.435173 55.592770 57.770512 54.914615 58.125000 53.875000 L 59.875000 55.125000 C 60.737795 53.562686 61.429255 52.008908 61.687500 50.187500 L 59.625000 49.750000 C 59.950702 48.447201 60.168621 46.788027 60.062500 45.312500 L 61.906250 45.343750 C 61.897220 43.484946 61.543694 41.467325 60.843750 39.781250 L 58.250000 40.906250 C 57.603541 39.756422 56.881689 38.804371 56.062500 38.000000 L 58.187500 36.375000 C 56.755578 34.621472 55.238742 32.937616 53.375000 31.875000 L 52.250000 34.093750 C 51.047536 33.585444 49.836557 33.420236 48.375000 33.343750 L 49.000000 30.906250 C 48.212069 30.692810 47.292477 30.531053 46.375000 30.468750 z M 45.812500 35.406250 C 52.352225 35.406249 57.656250 40.741525 57.656250 47.281250 C 57.656250 53.820974 52.352225 59.125000 45.812500 59.125000 C 39.272774 59.124999 33.968750 53.820975 33.968750 47.281250 C 33.968750 40.741523 39.272775 35.406250 45.812500 35.406250 z "
       id="path1306" />
    <path
       style="opacity:1.0000000;fill:#c4b89e;fill-opacity:1.0000000;stroke:#000000;stroke-width:1.0000000;stroke-linecap:round;stroke-linejoin:bevel;stroke-miterlimit:4.0000000;stroke-dasharray:none;stroke-opacity:1.0000000"
       d="M 21.312500 3.6562500 C 11.705172 3.6562500 3.9062500 11.455172 3.9062500 21.062500 C 3.9062500 30.669828 11.705173 38.468750 21.312500 38.468750 C 30.919828 38.468750 38.718751 30.669828 38.718750 21.062500 C 38.718750 11.455172 30.919828 3.6562501 21.312500 3.6562500 z M 20.937500 13.687500 C 25.488340 13.687500 29.187500 17.386660 29.187500 21.937500 C 29.187500 26.488340 25.488340 30.156250 20.937500 30.156250 C 16.386661 30.156249 12.687500 26.488340 12.687500 21.937500 C 12.687500 17.386660 16.386660 13.687500 20.937500 13.687500 z "
       id="path1308" />
  </g>
</svg>
