<?xml version="1.0" encoding="UTF-8" standalone="no"?>
<!-- Created with Inkscape (http://www.inkscape.org/) -->
<svg
   xmlns:dc="http://purl.org/dc/elements/1.1/"
   xmlns:cc="http://web.resource.org/cc/"
   xmlns:rdf="http://www.w3.org/1999/02/22-rdf-syntax-ns#"
   xmlns:svg="http://www.w3.org/2000/svg"
   xmlns="http://www.w3.org/2000/svg"
   xmlns:xlink="http://www.w3.org/1999/xlink"
   xmlns:sodipodi="http://inkscape.sourceforge.net/DTD/sodipodi-0.dtd"
   xmlns:inkscape="http://www.inkscape.org/namespaces/inkscape"
   width="64.000000px"
   height="64.000000px"
   id="svg2"
   sodipodi:version="0.32"
   inkscape:version="0.42"
   sodipodi:docbase="/home/egore/.icons/Nerdy-Lines/scaleable/apps"
   sodipodi:docname="web-browser.svg"
   inkscape:export-filename="/home/egore/.icons/Nerdy-Lines/64x64/filesystems/gnome-fs-regular.png"
   inkscape:export-xdpi="90.000000"
   inkscape:export-ydpi="90.000000">
  <defs
     id="defs4">
    <linearGradient
       inkscape:collect="always"
       id="linearGradient8708">
      <stop
         style="stop-color:#000000;stop-opacity:1;"
         offset="0"
         id="stop8710" />
      <stop
         style="stop-color:#000000;stop-opacity:0;"
         offset="1"
         id="stop8712" />
    </linearGradient>
    <linearGradient
       id="linearGradient5764">
      <stop
         style="stop-color:#ffffff;stop-opacity:0.75294119;"
         offset="0.0000000"
         id="stop5766" />
      <stop
         style="stop-color:#ffffff;stop-opacity:0;"
         offset="1"
         id="stop5768" />
    </linearGradient>
    <linearGradient
       id="linearGradient5905">
      <stop
         style="stop-color:#6cb182;stop-opacity:1;"
         offset="0"
         id="stop5907" />
      <stop
         style="stop-color:#479560;stop-opacity:1.0000000;"
         offset="1.0000000"
         id="stop5909" />
    </linearGradient>
    <linearGradient
       id="linearGradient5171">
      <stop
         style="stop-color:#478b5b;stop-opacity:1;"
         offset="0"
         id="stop5173" />
      <stop
         style="stop-color:#597255;stop-opacity:1.0000000;"
         offset="1.0000000"
         id="stop5175" />
    </linearGradient>
    <linearGradient
       id="linearGradient2253">
      <stop
         id="stop2255"
         offset="0.0000000"
         style="stop-color:#e5e4e0;stop-opacity:1.0000000;" />
      <stop
         id="stop2257"
         offset="1.0000000"
         style="stop-color:#545652;stop-opacity:1.0000000;" />
    </linearGradient>
    <radialGradient
       inkscape:collect="always"
       xlink:href="#linearGradient2253"
       id="radialGradient2251"
       cx="25.100494"
       cy="22.480164"
       fx="25.100494"
       fy="22.480164"
       r="25.348730"
       gradientTransform="matrix(1.475985,-0.835668,0.587732,0.998280,-25.15978,21.51929)"
       gradientUnits="userSpaceOnUse" />
    <linearGradient
       inkscape:collect="always"
       xlink:href="#linearGradient5171"
       id="linearGradient5177"
       x1="39.629913"
       y1="34.878803"
       x2="44.594486"
       y2="46.603996"
       gradientUnits="userSpaceOnUse" />
    <linearGradient
       inkscape:collect="always"
       xlink:href="#linearGradient5905"
       id="linearGradient5911"
       x1="31.551353"
       y1="23.381688"
       x2="57.912076"
       y2="23.381688"
       gradientUnits="userSpaceOnUse" />
    <linearGradient
       inkscape:collect="always"
       xlink:href="#linearGradient5764"
       id="linearGradient5770"
       x1="30.099638"
       y1="47.072620"
       x2="20.798731"
       y2="42.408951"
       gradientUnits="userSpaceOnUse" />
    <radialGradient
       inkscape:collect="always"
       xlink:href="#linearGradient8708"
       id="radialGradient8714"
       cx="29.781250"
       cy="55.942989"
       fx="29.781250"
       fy="55.942989"
       r="0.50000000"
       gradientTransform="matrix(2.873405e-2,11.28122,-5.573803,1.409766e-2,340.7407,-282.3200)"
       gradientUnits="userSpaceOnUse" />
    <radialGradient
       inkscape:collect="always"
       xlink:href="#linearGradient8708"
       id="radialGradient8716"
       cx="29.656250"
       cy="54.655285"
       fx="29.656250"
       fy="54.655285"
       r="2.4002425"
       gradientTransform="matrix(1.816230,1.985466,-0.818358,0.748638,20.52126,-45.32970)"
       gradientUnits="userSpaceOnUse" />
    <radialGradient
       inkscape:collect="always"
       xlink:href="#linearGradient8708"
       id="radialGradient8724"
       cx="20.375000"
       cy="56.350010"
       fx="20.375000"
       fy="56.350010"
       r="2.1529990"
       gradientTransform="matrix(-1.654672,3.570606,-1.702767,-0.789102,150.0399,26.52730)"
       gradientUnits="userSpaceOnUse" />
    <radialGradient
       inkscape:collect="always"
       xlink:href="#linearGradient8708"
       id="radialGradient8732"
       cx="15.296875"
       cy="53.840206"
       fx="15.296875"
       fy="53.840206"
       r="2.2228850"
       gradientTransform="matrix(-1.686993,3.957396,-1.884606,-0.803374,142.5701,34.59305)"
       gradientUnits="userSpaceOnUse" />
    <radialGradient
       inkscape:collect="always"
       xlink:href="#linearGradient8708"
       id="radialGradient8740"
       cx="10.187500"
       cy="45.332188"
       fx="10.187500"
       fy="45.332188"
       r="3.6366976"
       gradientTransform="matrix(-1.886434,-1.142175e-2,2.744567e-3,-0.469064,29.28113,66.55192)"
       gradientUnits="userSpaceOnUse" />
    <radialGradient
       inkscape:collect="always"
       xlink:href="#linearGradient8708"
       id="radialGradient8748"
       cx="10.296875"
       cy="45.106606"
       fx="10.296875"
       fy="45.106606"
       r="2.1174841"
       gradientTransform="matrix(-1.903800,1.881662,-0.701508,-0.709788,61.54272,57.75026)"
       gradientUnits="userSpaceOnUse" />
    <radialGradient
       inkscape:collect="always"
       xlink:href="#linearGradient8708"
       id="radialGradient8756"
       cx="29.828125"
       cy="24.249903"
       fx="29.828125"
       fy="24.249903"
       r="0.50390650"
       gradientTransform="matrix(-5.664536e-2,-13.33330,7.313489,-3.107071e-2,-145.8337,425.0859)"
       gradientUnits="userSpaceOnUse" />
    <radialGradient
       inkscape:collect="always"
       xlink:href="#linearGradient8708"
       id="radialGradient8764"
       cx="28.906250"
       cy="26.488338"
       fx="28.906250"
       fy="26.488338"
       r="2.8333430"
       gradientTransform="matrix(1.785830,-1.744136,0.692369,0.708888,-41.05512,58.10790)"
       gradientUnits="userSpaceOnUse" />
  </defs>
  <sodipodi:namedview
     id="base"
     pagecolor="#ffffff"
     bordercolor="#666666"
     borderopacity="1.0"
     inkscape:pageopacity="0.0"
     inkscape:pageshadow="2"
     inkscape:zoom="8.1875000"
     inkscape:cx="32.000000"
     inkscape:cy="32.000000"
     inkscape:document-units="px"
     inkscape:current-layer="layer1"
     inkscape:window-width="1024"
     inkscape:window-height="693"
     inkscape:window-x="0"
     inkscape:window-y="25" />
  <metadata
     id="metadata7">
    <rdf:RDF>
      <cc:Work
         rdf:about="">
        <dc:format>image/svg+xml</dc:format>
        <dc:type
           rdf:resource="http://purl.org/dc/dcmitype/StillImage" />
        <dc:title>web-browser</dc:title>
        <dc:date>2005-10-29</dc:date>
        <dc:creator>
          <cc:Agent>
            <dc:title>Christoph Brill</dc:title>
          </cc:Agent>
        </dc:creator>
        <cc:license
           rdf:resource="http://creativecommons.org/licenses/by-nc-nd/2.0/" />
      </cc:Work>
      <cc:License
         rdf:about="http://creativecommons.org/licenses/by-nc-nd/2.0/">
        <cc:permits
           rdf:resource="http://web.resource.org/cc/Reproduction" />
        <cc:permits
           rdf:resource="http://web.resource.org/cc/Distribution" />
        <cc:requires
           rdf:resource="http://web.resource.org/cc/Notice" />
        <cc:requires
           rdf:resource="http://web.resource.org/cc/Attribution" />
        <cc:prohibits
           rdf:resource="http://web.resource.org/cc/CommercialUse" />
      </cc:License>
    </rdf:RDF>
  </metadata>
  <g
     inkscape:label="Ebene 1"
     inkscape:groupmode="layer"
     id="layer1">
    <path
       transform="matrix(0.969703,0.000000,0.000000,0.948743,3.441867,4.696861)"
       d="M 57.825830 29.679390 A 24.848730 23.070772 0 1 1  8.1283703,29.679390 A 24.848730 23.070772 0 1 1  57.825830 29.679390 z"
       sodipodi:ry="23.070772"
       sodipodi:rx="24.848730"
       sodipodi:cy="29.679390"
       sodipodi:cx="32.977100"
       id="path8091"
       style="opacity:1.0000000;fill:#000000;fill-opacity:0.50196081;stroke:none;stroke-width:1.0000000;stroke-linecap:round;stroke-linejoin:miter;stroke-miterlimit:4.0000000;stroke-dasharray:none;stroke-opacity:1.0000000"
       sodipodi:type="arc" />
    <path
       sodipodi:type="arc"
       style="opacity:1.0000000;fill:url(#radialGradient2251);fill-opacity:1.0;stroke:#000000;stroke-width:1.0000000;stroke-linecap:round;stroke-linejoin:miter;stroke-miterlimit:4.0000000;stroke-dasharray:none;stroke-opacity:1.0000000"
       id="path1503"
       sodipodi:cx="32.977100"
       sodipodi:cy="29.679390"
       sodipodi:rx="24.848730"
       sodipodi:ry="23.070772"
       d="M 57.825830 29.679390 A 24.848730 23.070772 0 1 1  8.1283703,29.679390 A 24.848730 23.070772 0 1 1  57.825830 29.679390 z"
       transform="matrix(0.930381,0.000000,0.000000,0.948743,4.005765,2.742663)" />
    <path
       style="fill:#9bba9f;fill-opacity:1.0000000;fill-rule:evenodd;stroke:#000000;stroke-width:1.0000000px;stroke-linecap:butt;stroke-linejoin:miter;stroke-opacity:1.0000000"
       d="M 14.412214,30.900763 C 16.200977,30.819455 18.913770,28.519223 19.786260,26.992366 C 20.216569,26.239325 18.211585,25.005961 18.320611,24.061069 C 18.455859,22.888913 20.483594,21.847909 20.519084,20.641221 C 20.565018,19.079461 18.910942,17.201018 18.259542,15.572519 C 15.185751,18.493638 13.150127,22.117049 12.213740,25.893130 C 12.132316,27.959288 12.842197,30.972127 14.412214,30.900763 z "
       id="path1505"
       sodipodi:nodetypes="csssccs" />
    <path
       style="fill:#70a47d;fill-opacity:1.0000000;fill-rule:evenodd;stroke:#000000;stroke-width:1.0000000px;stroke-linecap:butt;stroke-linejoin:miter;stroke-opacity:1.0000000"
       d="M 12.285287,36.282218 C 13.262386,35.630818 14.016529,33.685180 15.389313,34.198473 C 17.591677,35.021951 19.649333,38.357714 20.030534,40.549618 C 20.300733,42.103261 18.239185,43.806616 17.343511,45.435115 C 15.240009,42.988698 13.093326,39.635459 12.285287,36.282218 z "
       id="path1507"
       sodipodi:nodetypes="csscc" />
    <path
       style="fill:url(#linearGradient5177);fill-opacity:1.0;fill-rule:evenodd;stroke:#000000;stroke-width:1.0000000px;stroke-linecap:butt;stroke-linejoin:miter;stroke-opacity:1.0000000"
       d="M 36.030535,31.877862 C 38.198474,31.541985 37.801527,32.916031 40.305343,33.343512 C 42.809160,33.770993 43.969466,33.587786 46.412214,33.221374 C 48.854962,32.854962 48.366412,31.816794 49.709923,31.877863 C 51.053435,31.938932 51.969466,32.488550 51.908397,34.076336 C 51.847329,35.664122 49.526718,36.274809 48.854962,38.595420 C 48.183206,40.916030 50.198474,41.343511 48.366412,44.091603 C 46.534351,46.839694 45.068702,47.633587 42.625954,48.977099 C 40.183206,50.320610 40.366412,49.526717 39.694656,47.877862 C 39.022900,46.229007 40.885496,45.099236 38.717557,42.625954 C 36.549618,40.152671 35.101450,40.467200 32.488550,39.328244 C 31.297710,38.809160 29.954198,36.122137 31.389313,34.442748 C 32.824427,32.763359 33.862596,32.213740 36.030535,31.877862 z "
       id="path1509"
       sodipodi:nodetypes="cssssssssssss" />
    <path
       style="fill:url(#linearGradient5911);fill-opacity:1.0;fill-rule:evenodd;stroke:#000000;stroke-width:1.0000000px;stroke-linecap:butt;stroke-linejoin:miter;stroke-opacity:1.0000000"
       d="M 42.259542,23.938931 C 43.913949,25.439741 41.596601,28.946565 43.969466,28.335878 C 44.352564,28.237283 43.998415,24.502031 44.702290,23.938931 C 45.219789,23.524932 47.202598,24.578516 47.633588,25.404580 C 48.179697,26.451290 47.121858,28.636137 47.633588,29.557252 C 47.936107,30.101786 49.591361,30.165258 50.076336,29.801527 C 50.568460,29.432434 50.191509,27.396117 50.564885,27.358779 C 51.005758,27.314692 51.746707,29.093826 52.519084,29.557252 C 52.968081,29.826650 53.831960,29.862674 54.229008,29.557252 C 54.890484,29.048424 55.054309,27.754851 55.694656,27.114504 C 56.112833,26.696327 57.527106,26.901977 57.404580,26.381679 C 56.718651,23.468932 54.145197,17.784116 51.786259,16.122137 C 50.562500,15.259943 48.570179,18.506998 46.656489,18.809160 C 43.928957,19.239823 40.219851,17.542144 38.106870,18.320611 C 37.125704,18.682093 38.150385,21.290932 37.374046,22.229008 C 36.196187,23.652255 32.939459,23.927313 32.244275,25.404580 C 31.636660,26.695761 32.580345,29.544893 33.465649,30.534351 C 33.964569,31.091967 35.849202,30.632672 36.396947,30.045802 C 36.989151,29.411298 36.376729,27.731219 36.885496,26.870229 C 37.435253,25.939870 38.578554,25.213919 39.572519,24.671756 C 40.369902,24.236820 41.735001,23.463089 42.259542,23.938931 z "
       id="path1511"
       sodipodi:nodetypes="cssssssssssssssssssss" />
    <path
       style="fill:#538965;fill-opacity:1.0000000;fill-rule:evenodd;stroke:#000000;stroke-width:1.0000000px;stroke-linecap:butt;stroke-linejoin:miter;stroke-opacity:1.0000000"
       d="M 40.305344,12.580153 C 39.847583,13.076061 40.298110,14.264371 40.061069,15.022901 C 39.890985,15.567170 38.732798,16.426579 39.083969,16.488550 C 40.117022,16.670853 43.486008,16.619907 44.213740,15.755725 C 44.788807,15.072833 43.767762,12.477338 42.992366,11.847328 C 42.464964,11.418814 40.824682,12.017537 40.305344,12.580153 z "
       id="path1513"
       sodipodi:nodetypes="csssss" />
    <path
       style="fill:#2e5d3b;fill-opacity:1.0000000;fill-rule:evenodd;stroke:#000000;stroke-width:1.0000000px;stroke-linecap:butt;stroke-linejoin:miter;stroke-opacity:1.0000000"
       d="M 57.709924,29.801526 C 57.624039,29.123636 55.516012,29.998400 54.961832,30.656489 C 54.213213,31.545474 54.255935,33.149072 53.740458,34.320611 C 53.360261,35.184695 52.129867,35.951685 52.274809,36.763359 C 52.536992,38.231583 54.441122,42.018196 54.961832,41.282442 C 56.513747,39.089616 58.198473,33.657657 57.709924,29.801526 z "
       id="path1515"
       sodipodi:nodetypes="csssss" />
    <path
       transform="translate(0.951382,4.178008e-2)"
       d="M 34.931299 28.030535 A 5.6793895 5.6793895 0 1 1  23.572520,28.030535 A 5.6793895 5.6793895 0 1 1  34.931299 28.030535 z"
       sodipodi:ry="5.6793895"
       sodipodi:rx="5.6793895"
       sodipodi:cy="28.030535"
       sodipodi:cx="29.251909"
       id="path9492"
       style="opacity:1.0000000;fill:none;fill-opacity:1.0000000;stroke:#000000;stroke-width:3.0000000;stroke-linecap:round;stroke-linejoin:bevel;stroke-miterlimit:4.0000000;stroke-dasharray:none;stroke-opacity:0.62745100"
       sodipodi:type="arc" />
    <path
       sodipodi:type="arc"
       style="opacity:1.0000000;fill:none;fill-opacity:1.0000000;stroke:#ffffff;stroke-width:3.0000000;stroke-linecap:round;stroke-linejoin:bevel;stroke-miterlimit:4.0000000;stroke-dasharray:none;stroke-opacity:0.62745100"
       id="path1396"
       sodipodi:cx="29.251909"
       sodipodi:cy="28.030535"
       sodipodi:rx="5.6793895"
       sodipodi:ry="5.6793895"
       d="M 34.931299 28.030535 A 5.6793895 5.6793895 0 1 1  23.572520,28.030535 A 5.6793895 5.6793895 0 1 1  34.931299 28.030535 z"
       transform="translate(0.244275,-0.488550)" />
    <path
       sodipodi:type="arc"
       style="opacity:1.0000000;fill:none;fill-opacity:1.0000000;stroke:#000000;stroke-width:2.0000000;stroke-linecap:round;stroke-linejoin:bevel;stroke-miterlimit:4.0000000;stroke-dasharray:none;stroke-opacity:0.62745100"
       id="path9494"
       sodipodi:cx="29.251909"
       sodipodi:cy="28.030535"
       sodipodi:rx="13.984733"
       sodipodi:ry="13.984733"
       d="M 43.236642 28.030535 A 13.984733 13.984733 0 1 1  15.267177,28.030535 A 13.984733 13.984733 0 1 1  43.236642 28.030535 z"
       transform="translate(0.951382,4.178008e-2)" />
    <path
       transform="translate(0.244275,-0.488550)"
       d="M 43.236642 28.030535 A 13.984733 13.984733 0 1 1  15.267177,28.030535 A 13.984733 13.984733 0 1 1  43.236642 28.030535 z"
       sodipodi:ry="13.984733"
       sodipodi:rx="13.984733"
       sodipodi:cy="28.030535"
       sodipodi:cx="29.251909"
       id="path2850"
       style="opacity:1.0000000;fill:none;fill-opacity:1.0000000;stroke:#ffffff;stroke-width:2.0000000;stroke-linecap:round;stroke-linejoin:bevel;stroke-miterlimit:4.0000000;stroke-dasharray:none;stroke-opacity:0.62745100"
       sodipodi:type="arc" />
    <path
       transform="translate(0.951382,4.178008e-2)"
       d="M 50.076336 28.030535 A 20.824427 20.824427 0 1 1  8.4274826,28.030535 A 20.824427 20.824427 0 1 1  50.076336 28.030535 z"
       sodipodi:ry="20.824427"
       sodipodi:rx="20.824427"
       sodipodi:cy="28.030535"
       sodipodi:cx="29.251909"
       id="path9496"
       style="opacity:1.0000000;fill:none;fill-opacity:1.0000000;stroke:#000000;stroke-width:1.0000000;stroke-linecap:round;stroke-linejoin:bevel;stroke-miterlimit:4.0000000;stroke-dasharray:none;stroke-opacity:0.62745100"
       sodipodi:type="arc" />
    <path
       sodipodi:type="arc"
       style="opacity:1.0000000;fill:none;fill-opacity:1.0000000;stroke:#ffffff;stroke-width:1.0000000;stroke-linecap:round;stroke-linejoin:bevel;stroke-miterlimit:4.0000000;stroke-dasharray:none;stroke-opacity:0.62745100"
       id="path3578"
       sodipodi:cx="29.251909"
       sodipodi:cy="28.030535"
       sodipodi:rx="20.824427"
       sodipodi:ry="20.824427"
       d="M 50.076336 28.030535 A 20.824427 20.824427 0 1 1  8.4274826,28.030535 A 20.824427 20.824427 0 1 1  50.076336 28.030535 z"
       transform="translate(0.244275,-0.488550)" />
    <path
       sodipodi:nodetypes="cccccccc"
       id="path6498"
       d="M 10.223769,46.745395 L 29.887891,27.203410 L 29.887891,56.272112 L 23.781020,49.310280 L 20.605448,56.149975 C 19.424786,58.633436 14.091453,56.475674 15.231402,53.707227 L 18.162700,46.867532 L 10.223769,46.745395 z "
       style="fill:#000000;fill-opacity:0.50196081;fill-rule:evenodd;stroke:none;stroke-width:1.0000000px;stroke-linecap:butt;stroke-linejoin:miter;stroke-opacity:1.0000000" />
    <path
       style="fill:#564623;fill-opacity:1.0000000;fill-rule:evenodd;stroke:#000000;stroke-width:1.0000000px;stroke-linecap:butt;stroke-linejoin:miter;stroke-opacity:1.0000000"
       d="M 10.137405,45.190840 L 29.801527,25.648855 L 29.801527,54.717557 L 23.694656,47.755725 L 20.519084,54.595420 C 19.338422,57.078881 14.005089,54.921119 15.145038,52.152672 L 18.076336,45.312977 L 10.137405,45.190840 z "
       id="path4306"
       sodipodi:nodetypes="cccccccc" />
    <path
       sodipodi:nodetypes="cccccc"
       id="path5034"
       d="M 13.293861,43.883928 L 28.372354,29.069673 L 17.716043,53.908856 C 16.929162,53.607545 16.359616,52.814370 16.786660,51.777262 L 20.105623,43.802710 L 13.293861,43.883928 z "
       style="fill:#ffffff;fill-opacity:0.75294119;fill-rule:evenodd;stroke:none;stroke-width:0.74923438px;stroke-linecap:butt;stroke-linejoin:miter;stroke-opacity:1.0000000" />
    <path
       style="fill:url(#linearGradient5770);fill-opacity:1.0;fill-rule:evenodd;stroke:none;stroke-width:0.74923438px;stroke-linecap:butt;stroke-linejoin:miter;stroke-opacity:1.0000000"
       d="M 28.372354,29.069673 L 28.372354,51.021672 L 23.451419,45.114715 L 19.949438,53.089268 C 19.507141,54.019615 18.502925,54.210167 17.716043,53.908856 L 28.372354,29.069673 z "
       id="path5036"
       sodipodi:nodetypes="cccccc" />
    <path
       style="fill:none;fill-opacity:1.0;fill-rule:evenodd;stroke:url(#radialGradient8764);stroke-width:1.0000000px;stroke-linecap:butt;stroke-linejoin:miter;stroke-opacity:1.0000000"
       d="M 28.799437,26.642171 L 33.466123,22.027005"
       id="path7952"
       sodipodi:nodetypes="cc" />
    <path
       style="fill:none;fill-opacity:1.0;fill-rule:evenodd;stroke:url(#radialGradient8756);stroke-width:1.0000000px;stroke-linecap:butt;stroke-linejoin:miter;stroke-opacity:1.0000000"
       d="M 29.803458,27.059056 L 29.795645,20.688360"
       id="path7954"
       sodipodi:nodetypes="cc" />
    <path
       style="fill:none;fill-opacity:1.0;fill-rule:evenodd;stroke:url(#radialGradient8716);stroke-width:1.0000000px;stroke-linecap:butt;stroke-linejoin:miter;stroke-opacity:1.0000000"
       d="M 29.352567,54.202312 L 33.153052,58.526670"
       id="path7956"
       sodipodi:nodetypes="cc" />
    <path
       style="fill:none;fill-opacity:1.0;fill-rule:evenodd;stroke:url(#radialGradient8740);stroke-width:1.0000000px;stroke-linecap:butt;stroke-linejoin:miter;stroke-opacity:1.0000000"
       d="M 10.588750,45.192993 L 4.3153547,45.093629"
       id="path7960"
       sodipodi:nodetypes="cc" />
    <path
       style="fill:none;fill-opacity:1.0;fill-rule:evenodd;stroke:url(#radialGradient8732);stroke-width:1.0000000px;stroke-linecap:butt;stroke-linejoin:miter;stroke-opacity:1.0000000"
       d="M 15.354935,51.660131 L 11.909165,59.768155"
       id="path7962"
       sodipodi:nodetypes="cc" />
    <path
       style="fill:none;fill-opacity:1.0;fill-rule:evenodd;stroke:url(#radialGradient8724);stroke-width:1.0000000px;stroke-linecap:butt;stroke-linejoin:miter;stroke-opacity:1.0000000"
       d="M 20.531107,54.563130 L 17.225109,61.644303"
       id="path7964"
       sodipodi:nodetypes="cc" />
    <path
       sodipodi:nodetypes="cc"
       id="path8696"
       d="M 7.2545918,48.065807 L 10.489560,44.839505"
       style="fill:none;fill-opacity:1.0;fill-rule:evenodd;stroke:url(#radialGradient8748);stroke-width:1.0000000px;stroke-linecap:butt;stroke-linejoin:miter;stroke-opacity:1.0000000" />
    <path
       sodipodi:nodetypes="cc"
       id="path8698"
       d="M 29.795645,58.559056 L 29.795645,53.985235"
       style="fill:none;fill-opacity:1.0;fill-rule:evenodd;stroke:url(#radialGradient8714);stroke-width:1.0000000px;stroke-linecap:butt;stroke-linejoin:miter;stroke-opacity:1.0000000" />
  </g>
</svg>
