<?xml version="1.0" encoding="UTF-8" standalone="no"?>
<!-- Created with Inkscape (http://www.inkscape.org/) -->
<svg
   xmlns:dc="http://purl.org/dc/elements/1.1/"
   xmlns:cc="http://web.resource.org/cc/"
   xmlns:rdf="http://www.w3.org/1999/02/22-rdf-syntax-ns#"
   xmlns:svg="http://www.w3.org/2000/svg"
   xmlns="http://www.w3.org/2000/svg"
   xmlns:xlink="http://www.w3.org/1999/xlink"
   xmlns:sodipodi="http://inkscape.sourceforge.net/DTD/sodipodi-0.dtd"
   xmlns:inkscape="http://www.inkscape.org/namespaces/inkscape"
   width="64.000000px"
   height="64.000000px"
   id="svg2"
   sodipodi:version="0.32"
   inkscape:version="0.42.2"
   sodipodi:docbase="/home/egore/Desktop/Nerdy-Lines/scalable/stock"
   sodipodi:docname="gtk-block.svg"
   inkscape:export-filename="/home/egore/.icons/Nerdy-Lines/64x64/filesystems/gnome-fs-regular.png"
   inkscape:export-xdpi="90.000000"
   inkscape:export-ydpi="90.000000">
  <defs
     id="defs4">
    <linearGradient
       inkscape:collect="always"
       id="linearGradient4519">
      <stop
         style="stop-color:#000000;stop-opacity:1;"
         offset="0"
         id="stop4521" />
      <stop
         style="stop-color:#000000;stop-opacity:0;"
         offset="1"
         id="stop4523" />
    </linearGradient>
    <linearGradient
       inkscape:collect="always"
       id="linearGradient4511">
      <stop
         style="stop-color:#000000;stop-opacity:1;"
         offset="0"
         id="stop4513" />
      <stop
         style="stop-color:#000000;stop-opacity:0;"
         offset="1"
         id="stop4515" />
    </linearGradient>
    <linearGradient
       inkscape:collect="always"
       id="linearGradient4503">
      <stop
         style="stop-color:#000000;stop-opacity:1;"
         offset="0"
         id="stop4505" />
      <stop
         style="stop-color:#000000;stop-opacity:0;"
         offset="1"
         id="stop4507" />
    </linearGradient>
    <linearGradient
       inkscape:collect="always"
       id="linearGradient4495">
      <stop
         style="stop-color:#000000;stop-opacity:1;"
         offset="0"
         id="stop4497" />
      <stop
         style="stop-color:#000000;stop-opacity:0;"
         offset="1"
         id="stop4499" />
    </linearGradient>
    <linearGradient
       inkscape:collect="always"
       id="linearGradient4485">
      <stop
         style="stop-color:#000000;stop-opacity:1;"
         offset="0"
         id="stop4487" />
      <stop
         style="stop-color:#000000;stop-opacity:0;"
         offset="1"
         id="stop4489" />
    </linearGradient>
    <linearGradient
       inkscape:collect="always"
       id="linearGradient4475">
      <stop
         style="stop-color:#000000;stop-opacity:1;"
         offset="0"
         id="stop4477" />
      <stop
         style="stop-color:#000000;stop-opacity:0;"
         offset="1"
         id="stop4479" />
    </linearGradient>
    <linearGradient
       inkscape:collect="always"
       id="linearGradient4467">
      <stop
         style="stop-color:#000000;stop-opacity:1;"
         offset="0"
         id="stop4469" />
      <stop
         style="stop-color:#000000;stop-opacity:0;"
         offset="1"
         id="stop4471" />
    </linearGradient>
    <linearGradient
       inkscape:collect="always"
       id="linearGradient4457">
      <stop
         style="stop-color:#000000;stop-opacity:1;"
         offset="0"
         id="stop4459" />
      <stop
         style="stop-color:#000000;stop-opacity:0;"
         offset="1"
         id="stop4461" />
    </linearGradient>
    <linearGradient
       inkscape:collect="always"
       id="linearGradient4449">
      <stop
         style="stop-color:#000000;stop-opacity:1;"
         offset="0"
         id="stop4451" />
      <stop
         style="stop-color:#000000;stop-opacity:0;"
         offset="1"
         id="stop4453" />
    </linearGradient>
    <linearGradient
       inkscape:collect="always"
       id="linearGradient4441">
      <stop
         style="stop-color:#000000;stop-opacity:1;"
         offset="0"
         id="stop4443" />
      <stop
         style="stop-color:#000000;stop-opacity:0;"
         offset="1"
         id="stop4445" />
    </linearGradient>
    <linearGradient
       inkscape:collect="always"
       id="linearGradient4433">
      <stop
         style="stop-color:#000000;stop-opacity:1;"
         offset="0"
         id="stop4435" />
      <stop
         style="stop-color:#000000;stop-opacity:0;"
         offset="1"
         id="stop4437" />
    </linearGradient>
    <radialGradient
       inkscape:collect="always"
       xlink:href="#linearGradient4433"
       id="radialGradient4439"
       cx="52.812500"
       cy="59.260090"
       fx="52.812500"
       fy="59.260090"
       r="0.81111650"
       gradientTransform="matrix(-1.001687,9.323591,-4.179606,-0.449039,353.3979,-408.4483)"
       gradientUnits="userSpaceOnUse" />
    <radialGradient
       inkscape:collect="always"
       xlink:href="#linearGradient4441"
       id="radialGradient4447"
       cx="52.723061"
       cy="58.653427"
       fx="52.723061"
       fy="58.653427"
       r="3.9939080"
       gradientTransform="matrix(2.425211,-0.144477,3.000277e-2,0.503633,-76.90558,35.45250)"
       gradientUnits="userSpaceOnUse" />
    <radialGradient
       inkscape:collect="always"
       xlink:href="#linearGradient4449"
       id="radialGradient4455"
       cx="57.531250"
       cy="11.323844"
       fx="57.531250"
       fy="11.323844"
       r="0.80330400"
       gradientTransform="matrix(0.933640,-8.208300,4.043429,0.459736,-41.96940,479.9965)"
       gradientUnits="userSpaceOnUse" />
    <radialGradient
       inkscape:collect="always"
       xlink:href="#linearGradient4457"
       id="radialGradient4463"
       cx="57.562500"
       cy="12.657976"
       fx="57.562500"
       fy="12.657976"
       r="2.4832135"
       gradientTransform="matrix(2.662892,0.637974,-0.162420,0.678114,-93.66433,-32.15068)"
       gradientUnits="userSpaceOnUse" />
    <radialGradient
       inkscape:collect="always"
       xlink:href="#linearGradient4457"
       id="radialGradient4465"
       cx="57.500000"
       cy="12.557612"
       fx="57.500000"
       fy="12.557612"
       r="2.6639700"
       gradientTransform="matrix(2.240853,1.669463,-0.538794,0.723176,-64.58311,-92.01299)"
       gradientUnits="userSpaceOnUse" />
    <radialGradient
       inkscape:collect="always"
       xlink:href="#linearGradient4467"
       id="radialGradient4473"
       cx="43.156250"
       cy="3.9116392"
       fx="43.156250"
       fy="3.9116392"
       r="4.5011885"
       gradientTransform="matrix(2.130187,-0.240192,4.452517e-2,0.394677,-48.94882,11.19696)"
       gradientUnits="userSpaceOnUse" />
    <radialGradient
       inkscape:collect="always"
       xlink:href="#linearGradient4475"
       id="radialGradient4481"
       cx="43.081467"
       cy="2.1670878"
       fx="43.081467"
       fy="2.1670878"
       r="1.1794855"
       gradientTransform="matrix(1.218745,-2.013590,1.172051,0.709377,-11.88901,87.39860)"
       gradientUnits="userSpaceOnUse" />
    <radialGradient
       inkscape:collect="always"
       xlink:href="#linearGradient4475"
       id="radialGradient4483"
       cx="43.289906"
       cy="2.6436605"
       fx="43.289906"
       fy="2.6436605"
       r="1.8006885"
       gradientTransform="matrix(-1.926347,-1.475131,0.494118,-0.645259,124.8976,67.78287)"
       gradientUnits="userSpaceOnUse" />
    <radialGradient
       inkscape:collect="always"
       xlink:href="#linearGradient4485"
       id="radialGradient4491"
       cx="5.2266498"
       cy="5.2853961"
       fx="5.2266498"
       fy="5.2853961"
       r="0.58493865"
       gradientTransform="matrix(-0.473372,-10.73830,3.774461,-0.166441,-12.75663,63.11439)"
       gradientUnits="userSpaceOnUse" />
    <radialGradient
       inkscape:collect="always"
       xlink:href="#linearGradient4485"
       id="radialGradient4493"
       cx="4.8488812"
       cy="5.6804576"
       fx="4.8488812"
       fy="5.6804576"
       r="2.5285320"
       gradientTransform="matrix(-2.442797,0.136027,-4.593210e-2,-0.824854,16.77762,10.16660)"
       gradientUnits="userSpaceOnUse" />
    <radialGradient
       inkscape:collect="always"
       xlink:href="#linearGradient4495"
       id="radialGradient4501"
       cx="8.0101938"
       cy="59.403423"
       fx="8.0101938"
       fy="59.403423"
       r="2.5993768"
       gradientTransform="matrix(-2.139797,0.130256,-4.300120e-2,-0.705345,27.70481,100.7355)"
       gradientUnits="userSpaceOnUse" />
    <radialGradient
       inkscape:collect="always"
       xlink:href="#linearGradient4503"
       id="radialGradient4509"
       cx="7.9843631"
       cy="60.795616"
       fx="7.9843631"
       fy="60.795616"
       r="0.61618865"
       gradientTransform="matrix(0.502082,7.996971,-3.604781,0.226322,223.0347,-17.36666)"
       gradientUnits="userSpaceOnUse" />
    <radialGradient
       inkscape:collect="always"
       xlink:href="#linearGradient4511"
       id="radialGradient4517"
       cx="39.475018"
       cy="10.299868"
       fx="39.475018"
       fy="10.299868"
       r="2.3216695"
       gradientTransform="matrix(-2.207506,-0.487458,0.237993,-1.077769,123.6900,39.24955)"
       gradientUnits="userSpaceOnUse" />
    <radialGradient
       inkscape:collect="always"
       xlink:href="#linearGradient4519"
       id="radialGradient4525"
       cx="39.224655"
       cy="9.2050190"
       fx="39.224655"
       fy="9.2050190"
       r="1.2349580"
       gradientTransform="matrix(-1.613023,2.602916,-1.578787,-0.978274,116.6780,-83.90593)"
       gradientUnits="userSpaceOnUse" />
  </defs>
  <sodipodi:namedview
     id="base"
     pagecolor="#ffffff"
     bordercolor="#666666"
     borderopacity="1.0"
     inkscape:pageopacity="0.0"
     inkscape:pageshadow="2"
     inkscape:zoom="2.8670970"
     inkscape:cx="-33.611563"
     inkscape:cy="42.132520"
     inkscape:document-units="px"
     inkscape:current-layer="layer1"
     inkscape:window-width="1024"
     inkscape:window-height="693"
     inkscape:window-x="0"
     inkscape:window-y="25"
     showguides="true"
     inkscape:guide-bbox="true" />
  <metadata
     id="metadata7">
    <rdf:RDF>
      <cc:Work
         rdf:about="">
        <dc:format>image/svg+xml</dc:format>
        <dc:type
           rdf:resource="http://purl.org/dc/dcmitype/StillImage" />
        <dc:title>gtk-align-left</dc:title>
        <dc:date>2005-11-14</dc:date>
        <dc:creator>
          <cc:Agent>
            <dc:title>Christoph Brill</dc:title>
          </cc:Agent>
        </dc:creator>
        <cc:license
           rdf:resource="http://creativecommons.org/licenses/by-nc-nd/2.0/" />
      </cc:Work>
      <cc:License
         rdf:about="http://creativecommons.org/licenses/by-nc-nd/2.0/">
        <cc:permits
           rdf:resource="http://web.resource.org/cc/Reproduction" />
        <cc:permits
           rdf:resource="http://web.resource.org/cc/Distribution" />
        <cc:requires
           rdf:resource="http://web.resource.org/cc/Notice" />
        <cc:requires
           rdf:resource="http://web.resource.org/cc/Attribution" />
        <cc:prohibits
           rdf:resource="http://web.resource.org/cc/CommercialUse" />
      </cc:License>
    </rdf:RDF>
  </metadata>
  <g
     inkscape:label="Ebene 1"
     inkscape:groupmode="layer"
     id="layer1">
    <g
       id="g1461">
      <path
         style="fill:#000000;fill-opacity:0.50196081;fill-rule:evenodd;stroke:none;stroke-width:1.0000000px;stroke-linecap:butt;stroke-linejoin:miter;stroke-opacity:1.0000000"
         d="M 9.8665631,62.434136 L 54.767845,59.870874 L 59.540815,15.588311 L 44.956738,4.8049327 L 6.6845825,8.6056317 L 9.8665631,62.434136 z "
         id="path4527"
         sodipodi:nodetypes="cccccc" />
      <g
         id="g1443">
        <path
           style="fill:#d9d1b9;fill-opacity:1.0000000;fill-rule:evenodd;stroke:#000000;stroke-width:1.0000000px;stroke-linecap:butt;stroke-linejoin:miter;stroke-opacity:1.0000000"
           d="M 7.8665631,59.934136 L 52.767845,57.370874 L 57.540815,13.088311 L 42.956738,2.3049327 L 4.6845825,6.1056317 L 7.8665631,59.934136 z "
           id="path1485"
           sodipodi:nodetypes="cccccc" />
        <path
           style="fill:#d9d1b9;fill-opacity:1.0000000;fill-rule:evenodd;stroke:#000000;stroke-width:1.0000000px;stroke-linecap:butt;stroke-linejoin:miter;stroke-opacity:1.0000000"
           d="M 43.078826,2.3933211 L 39.067650,8.9340589 L 57.608677,13.129826 L 43.078826,2.3933211 z "
           id="path1489"
           sodipodi:nodetypes="cccc" />
        <path
           style="fill:none;fill-opacity:1.0;fill-rule:evenodd;stroke:url(#radialGradient4493);stroke-width:1.0000000px;stroke-linecap:butt;stroke-linejoin:miter;stroke-opacity:1.0000000"
           d="M 0.22530978,6.5027832 L 5.1543360,6.0587634"
           id="path2226"
           sodipodi:nodetypes="cc" />
        <path
           style="fill:none;fill-opacity:1.0;fill-rule:evenodd;stroke:url(#radialGradient4465);stroke-width:1.0000000px;stroke-linecap:butt;stroke-linejoin:miter;stroke-opacity:1.0000000"
           d="M 63.049858,17.096271 L 57.283181,13.088483"
           id="path2228"
           sodipodi:nodetypes="cc" />
        <path
           style="fill:none;fill-opacity:1.0;fill-rule:evenodd;stroke:url(#radialGradient4439);stroke-width:1.0000000px;stroke-linecap:butt;stroke-linejoin:miter;stroke-opacity:1.0000000"
           d="M 52.813332,56.948613 L 52.016707,63.770681"
           id="path2230"
           sodipodi:nodetypes="cc" />
        <path
           style="fill:none;fill-opacity:1.0;fill-rule:evenodd;stroke:url(#radialGradient4501);stroke-width:1.0000000px;stroke-linecap:butt;stroke-linejoin:miter;stroke-opacity:1.0000000"
           d="M 8.3681710,59.907946 L 2.6870819,60.278319"
           id="path2232"
           sodipodi:nodetypes="cc" />
        <path
           style="fill:none;fill-opacity:1.0;fill-rule:evenodd;stroke:url(#radialGradient4491);stroke-width:1.0000000px;stroke-linecap:butt;stroke-linejoin:miter;stroke-opacity:1.0000000"
           d="M 4.7142948,6.5828749 L 4.4136232,1.0266207"
           id="path2234"
           sodipodi:nodetypes="cc" />
        <path
           sodipodi:nodetypes="cc"
           id="path2963"
           d="M 58.102395,8.0189254 L 57.495787,13.556986"
           style="fill:none;fill-opacity:1.0;fill-rule:evenodd;stroke:url(#radialGradient4455);stroke-width:1.0000000px;stroke-linecap:butt;stroke-linejoin:miter;stroke-opacity:1.0000000" />
        <path
           sodipodi:nodetypes="cc"
           id="path2965"
           d="M 61.346970,56.886527 L 52.310043,57.397525"
           style="fill:none;fill-opacity:1.0;fill-rule:evenodd;stroke:url(#radialGradient4447);stroke-width:1.0000000px;stroke-linecap:butt;stroke-linejoin:miter;stroke-opacity:1.0000000" />
        <path
           sodipodi:nodetypes="cc"
           id="path2967"
           d="M 8.1172679,63.759525 L 7.8412925,59.436365"
           style="fill:none;fill-opacity:1.0;fill-rule:evenodd;stroke:url(#radialGradient4509);stroke-width:1.0000000px;stroke-linecap:butt;stroke-linejoin:miter;stroke-opacity:1.0000000" />
        <path
           sodipodi:nodetypes="cc"
           id="path2969"
           d="M 42.144147,2.3888726 L 50.146524,1.5978259"
           style="fill:none;fill-opacity:1.0;fill-rule:evenodd;stroke:url(#radialGradient4473);stroke-width:1.0000000px;stroke-linecap:butt;stroke-linejoin:miter;stroke-opacity:1.0000000" />
        <path
           sodipodi:nodetypes="cc"
           id="path2971"
           d="M 43.525183,2.7185149 L 40.923806,0.79160751"
           style="fill:none;fill-opacity:1.0;fill-rule:evenodd;stroke:url(#radialGradient4483);stroke-width:1.0000000px;stroke-linecap:butt;stroke-linejoin:miter;stroke-opacity:1.0000000" />
        <path
           style="fill:none;fill-opacity:1.0;fill-rule:evenodd;stroke:url(#radialGradient4517);stroke-width:1.0000000px;stroke-linecap:butt;stroke-linejoin:miter;stroke-opacity:1.0000000"
           d="M 36.106640,8.2711460 L 39.749979,9.0900783"
           id="path2973"
           sodipodi:nodetypes="cc" />
        <path
           style="fill:none;fill-opacity:1.0;fill-rule:evenodd;stroke:url(#radialGradient4481);stroke-width:1.0000000px;stroke-linecap:butt;stroke-linejoin:miter;stroke-opacity:1.0000000"
           d="M 42.802058,2.8573599 L 44.161029,0.62555408"
           id="path2975"
           sodipodi:nodetypes="cc" />
        <path
           sodipodi:nodetypes="cc"
           id="path3703"
           d="M 37.962796,10.746020 L 39.432712,8.3367476"
           style="fill:none;fill-opacity:1.0;fill-rule:evenodd;stroke:url(#radialGradient4525);stroke-width:1.0000000px;stroke-linecap:butt;stroke-linejoin:miter;stroke-opacity:1.0000000" />
        <path
           sodipodi:nodetypes="cc"
           id="path3705"
           d="M 57.109922,13.010971 L 61.076349,13.928000"
           style="fill:none;fill-opacity:1.0;fill-rule:evenodd;stroke:url(#radialGradient4463);stroke-width:1.0000000px;stroke-linecap:butt;stroke-linejoin:miter;stroke-opacity:1.0000000" />
      </g>
    </g>
    <path
       style="fill:none;fill-opacity:0.75000000;fill-rule:evenodd;stroke:#000000;stroke-width:1.0000000;stroke-linecap:butt;stroke-linejoin:miter;stroke-miterlimit:4.0000000;stroke-dasharray:none;stroke-opacity:1.0000000"
       d="M 12.163132,33.221374 C 12.265128,33.156641 11.753572,35.933445 14.183822,33.465649 C 14.424381,33.221374 14.664939,32.977099 14.905499,32.732824 C 15.485675,32.143684 16.184709,34.056100 16.781854,34.442748 C 17.670991,35.018460 20.493664,33.343511 21.111905,33.343511 C 21.606173,33.343511 21.878708,33.933211 22.555256,34.076336 C 24.216793,34.427837 24.217232,32.185003 25.730626,33.465649 C 26.816093,34.384178 26.188412,35.689414 27.462647,35.419847 C 29.060856,35.081743 29.731728,32.715781 31.215358,33.343511 C 32.523346,33.896926 30.925932,35.053755 33.236049,34.076336 C 33.922004,33.786106 34.818709,34.958642 34.968070,35.053435 C 35.760615,35.556427 36.604999,33.628738 37.566101,33.832061 C 38.150939,33.955784 38.005840,34.814859 38.432111,35.175572 C 39.315319,35.922949 41.318813,31.806974 41.318813,33.587786 C 41.318813,34.397376 41.579581,35.309515 42.473492,34.931297 C 43.416607,34.532262 45.648864,32.110488 45.648864,33.343511 C 45.648864,35.011462 46.186733,34.459448 47.669554,33.832061 C 48.148567,33.629389 48.686423,33.093716 49.112904,32.732824"
       id="path1465"
       sodipodi:nodetypes="csssssssssssssssss" />
    <path
       style="fill:none;fill-opacity:0.75000000;fill-rule:evenodd;stroke:#000000;stroke-width:1.0000000px;stroke-linecap:butt;stroke-linejoin:miter;stroke-opacity:1.0000000"
       d="M 12.109702,19.114504 C 12.588658,18.875026 12.633423,19.440241 13.086802,19.725191 C 13.702651,20.112254 14.511225,17.117542 14.796725,18.259542 C 15.272903,20.164255 15.450552,19.533580 16.995198,18.503817 C 19.015034,17.157259 18.523721,18.099099 19.560084,19.480916 C 20.513935,20.752718 21.696687,20.176073 23.102069,19.297710 C 24.844577,18.208642 24.613572,18.641308 25.300542,19.786259 C 25.443654,20.024779 27.953743,18.442748 29.575351,18.442748 C 30.212602,18.442748 29.979709,19.702067 30.430313,20.152671 C 30.944701,20.667060 31.726837,16.544874 32.384511,19.175572 C 33.006040,21.661687 35.531955,18.012492 36.292908,19.297710 C 36.749867,20.069494 37.233491,19.766618 38.735657,18.564886 C 39.493678,17.958468 39.629226,19.455299 39.712756,19.664122 C 40.086654,20.598867 42.155504,16.817980 42.155504,19.664122 C 42.155504,20.644298 43.331926,19.509753 43.987565,18.198474 C 44.346205,17.481194 45.435773,18.852788 46.002832,19.419847 C 46.377076,19.794092 47.488837,18.809160 48.018099,18.809160 C 48.346334,18.809160 48.911239,19.786260 49.239473,19.786260"
       id="path1467"
       sodipodi:nodetypes="csssssssssssssssss" />
    <path
       style="fill:none;fill-opacity:0.75000000;fill-rule:evenodd;stroke:#000000;stroke-width:1.0000000px;stroke-linecap:butt;stroke-linejoin:miter;stroke-opacity:1.0000000"
       d="M 12.991809,47.829737 C 12.748632,48.765627 14.107945,48.858991 14.666477,49.417523 C 15.255260,50.006305 16.346041,48.475400 16.743127,48.196149 C 17.356964,47.764468 17.805180,50.993332 18.697012,49.173248 C 19.479607,47.576099 20.470420,49.393811 20.877544,49.068111 C 22.438140,47.819634 22.804111,47.243108 23.738646,47.829737 C 25.383580,48.862299 25.147653,50.415579 26.303532,48.806836 C 27.394628,47.288258 28.716529,46.551994 29.112692,48.928973 C 29.277076,49.915276 31.851657,45.360653 31.851657,48.231090 C 31.851657,48.947488 33.570931,48.206600 34.503425,47.890805 C 35.233026,47.643720 35.535392,48.455194 35.908005,48.362040 C 36.939273,48.104224 38.025595,46.429281 38.656097,47.690285 C 39.477370,49.332830 39.507131,49.035761 40.976708,48.300972 C 42.259349,47.659651 41.870339,47.323873 43.053044,47.323873 C 44.110860,47.323873 44.046797,47.951214 44.762967,48.667384 C 45.368202,49.272619 46.244926,47.739264 47.083578,47.568148 C 47.721116,47.438067 48.112619,48.440110 49.193914,48.091326"
       id="path1475"
       sodipodi:nodetypes="cssssssssssssssss" />
    <path
       sodipodi:nodetypes="csssssssssssssssss"
       id="path1486"
       d="M 12.109702,19.977702 C 12.588658,19.738224 12.633423,20.303439 13.086802,20.588389 C 13.702651,20.975452 14.511225,17.980740 14.796725,19.122740 C 15.272903,21.027453 15.450552,20.396778 16.995198,19.367015 C 19.015034,18.020457 18.523721,18.962297 19.560084,20.344114 C 20.513935,21.615916 21.696687,21.039271 23.102069,20.160908 C 24.844577,19.071840 24.613572,19.504506 25.300542,20.649457 C 25.443654,20.887977 27.953743,19.305946 29.575351,19.305946 C 30.212602,19.305946 29.979709,20.565265 30.430313,21.015869 C 30.944701,21.530258 31.726837,17.408072 32.384511,20.038770 C 33.006040,22.524885 35.531955,18.875690 36.292908,20.160908 C 36.749867,20.932692 37.233491,20.629816 38.735657,19.428084 C 39.493678,18.821666 39.629226,20.318497 39.712756,20.527320 C 40.086654,21.462065 42.155504,17.681178 42.155504,20.527320 C 42.155504,21.507496 43.331926,20.372951 43.987565,19.061672 C 44.346205,18.344392 45.435773,19.715986 46.002832,20.283045 C 46.377076,20.657290 47.488837,19.672358 48.018099,19.672358 C 48.346334,19.672358 48.911239,20.649458 49.239473,20.649458"
       style="fill:none;fill-opacity:0.75000000;fill-rule:evenodd;stroke:#000000;stroke-width:1.0000000px;stroke-linecap:butt;stroke-linejoin:miter;stroke-opacity:0.50196081" />
    <path
       id="path1477"
       style="fill:none;fill-opacity:0.75000000;fill-rule:evenodd;stroke:#000000;stroke-width:1.0000000px;stroke-linecap:butt;stroke-linejoin:miter;stroke-opacity:1.0000000"
       d="M 12.097096,41.496483 C 12.853309,41.212903 11.788728,44.218577 13.440607,41.740758 C 14.280711,40.480601 14.637131,41.471632 15.150531,41.985032 C 16.136835,42.971336 18.954774,39.247805 19.547477,41.618620 C 19.658238,42.061661 21.358551,40.623630 23.516943,41.374345 C 24.305261,41.648531 23.944247,42.310850 25.349004,41.374345 C 26.838780,40.381162 27.532192,40.091829 27.913889,41.618620 C 28.052011,42.171106 29.561198,39.405150 30.723050,41.496483 C 31.394822,42.705673 33.485669,41.198211 34.265034,40.641521 C 35.044399,40.084831 35.884881,41.125985 36.151910,41.192742 C 37.007251,41.406577 37.685706,40.907579 38.228246,40.582055 C 38.350765,40.508544 39.342130,41.383271 39.449620,41.437017 C 40.034255,41.729334 42.192877,39.896304 42.258780,39.849230 C 42.985358,39.330246 43.364263,41.284445 44.090841,41.803429 C 44.326847,41.972004 46.449292,40.267251 47.144276,40.093505 C 48.146619,39.842919 47.503675,42.543267 49.464887,40.582055"
       sodipodi:nodetypes="csssssssssssssss" />
    <path
       sodipodi:nodetypes="cssssssssssssssc"
       d="M 49.274121,26.987285 C 48.287817,27.973589 45.469878,24.250058 44.877175,26.620873 C 44.766414,27.063914 44.635633,25.800275 42.477241,26.550990 C 41.688923,26.825176 42.049937,27.487495 40.645180,26.550990 C 39.155404,25.557807 38.461992,25.268474 38.080295,26.795265 C 37.942173,27.347751 36.432986,24.581795 35.271134,26.673128 C 34.599362,27.882318 33.206085,26.985229 32.426720,26.428539 C 31.647355,25.871849 30.806873,26.913003 30.539844,26.979760 C 29.684503,27.193595 29.006048,26.694597 28.463508,26.369073 C 28.340989,26.295562 27.349624,27.170289 27.242134,27.224035 C 26.657499,27.516352 24.498877,25.683322 24.432974,25.636248 C 23.706396,25.117264 23.327491,27.071463 22.600913,27.590447 C 22.364907,27.759022 20.242462,26.054269 19.547478,25.880523 C 18.545135,25.629937 19.188079,28.330285 17.226867,26.369073 C 16.918723,26.060929 13.717723,28.218923 13.501676,27.285103 C 13.020937,25.207205 12.218005,27.105751 12.097096,26.918691"
       style="fill:none;fill-opacity:0.75000000;fill-rule:evenodd;stroke:#000000;stroke-width:1.0000000px;stroke-linecap:butt;stroke-linejoin:miter;stroke-opacity:1.0000000"
       id="path1469" />
    <path
       sodipodi:nodetypes="csssssssssssssssss"
       id="path2940"
       d="M 12.163132,34.084572 C 12.265128,34.019839 11.753572,36.796643 14.183822,34.328847 C 14.424381,34.084572 14.664939,33.840297 14.905499,33.596022 C 15.485675,33.006882 16.184709,34.919298 16.781854,35.305946 C 17.670991,35.881658 20.493664,34.206709 21.111905,34.206709 C 21.606173,34.206709 21.878708,34.796409 22.555256,34.939534 C 24.216793,35.291035 24.217232,33.048201 25.730626,34.328847 C 26.816093,35.247376 26.188412,36.552612 27.462647,36.283045 C 29.060856,35.944941 29.731728,33.578979 31.215358,34.206709 C 32.523346,34.760124 30.925932,35.916953 33.236049,34.939534 C 33.922004,34.649304 34.818709,35.821840 34.968070,35.916633 C 35.760615,36.419625 36.604999,34.491936 37.566101,34.695259 C 38.150939,34.818982 38.005840,35.678057 38.432111,36.038770 C 39.315319,36.786147 41.318813,32.670172 41.318813,34.450984 C 41.318813,35.260574 41.579581,36.172713 42.473492,35.794495 C 43.416607,35.395460 45.648864,32.973686 45.648864,34.206709 C 45.648864,35.874660 46.186733,35.322646 47.669554,34.695259 C 48.148567,34.492587 48.686423,33.956914 49.112904,33.596022"
       style="fill:none;fill-opacity:0.75000000;fill-rule:evenodd;stroke:#000000;stroke-width:1.0000000;stroke-linecap:butt;stroke-linejoin:miter;stroke-miterlimit:4.0000000;stroke-dasharray:none;stroke-opacity:0.50196081" />
    <path
       sodipodi:nodetypes="cssssssssssssssss"
       id="path2944"
       d="M 12.991809,48.692935 C 12.748632,49.628825 14.107945,49.722189 14.666477,50.280721 C 15.255260,50.869503 16.346041,49.338598 16.743127,49.059347 C 17.356964,48.627666 17.805180,51.856530 18.697012,50.036446 C 19.479607,48.439297 20.470420,50.257009 20.877544,49.931309 C 22.438140,48.682832 22.804111,48.106306 23.738646,48.692935 C 25.383580,49.725497 25.147653,51.278777 26.303532,49.670034 C 27.394628,48.151456 28.716529,47.415192 29.112692,49.792171 C 29.277076,50.778474 31.851657,46.223851 31.851657,49.094288 C 31.851657,49.810686 33.570931,49.069798 34.503425,48.754003 C 35.233026,48.506918 35.535392,49.318392 35.908005,49.225238 C 36.939273,48.967422 38.025595,47.292479 38.656097,48.553483 C 39.477370,50.196028 39.507131,49.898959 40.976708,49.164170 C 42.259349,48.522849 41.870339,48.187071 43.053044,48.187071 C 44.110860,48.187071 44.046797,48.814412 44.762967,49.530582 C 45.368202,50.135817 46.244926,48.602462 47.083578,48.431346 C 47.721116,48.301265 48.112619,49.303308 49.193914,48.954524"
       style="fill:none;fill-opacity:0.75000000;fill-rule:evenodd;stroke:#000000;stroke-width:1.0000000px;stroke-linecap:butt;stroke-linejoin:miter;stroke-opacity:0.50196081" />
    <path
       sodipodi:nodetypes="csssssssssssssss"
       d="M 12.097096,42.359681 C 12.853309,42.076101 11.788728,45.081775 13.440607,42.603956 C 14.280711,41.343799 14.637131,42.334830 15.150531,42.848230 C 16.136835,43.834534 18.954774,40.111003 19.547477,42.481818 C 19.658238,42.924859 21.358551,41.486828 23.516943,42.237543 C 24.305261,42.511729 23.944247,43.174048 25.349004,42.237543 C 26.838780,41.244360 27.532192,40.955027 27.913889,42.481818 C 28.052011,43.034304 29.561198,40.268348 30.723050,42.359681 C 31.394822,43.568871 33.485669,42.061409 34.265034,41.504719 C 35.044399,40.948029 35.884881,41.989183 36.151910,42.055940 C 37.007251,42.269775 37.685706,41.770777 38.228246,41.445253 C 38.350765,41.371742 39.342130,42.246469 39.449620,42.300215 C 40.034255,42.592532 42.192877,40.759502 42.258780,40.712428 C 42.985358,40.193444 43.364263,42.147643 44.090841,42.666627 C 44.326847,42.835202 46.449292,41.130449 47.144276,40.956703 C 48.146619,40.706117 47.503675,43.406465 49.464887,41.445253"
       style="fill:none;fill-opacity:0.75000000;fill-rule:evenodd;stroke:#000000;stroke-width:1.0000000px;stroke-linecap:butt;stroke-linejoin:miter;stroke-opacity:0.50196081"
       id="path2946" />
    <path
       id="path2948"
       style="fill:none;fill-opacity:0.75000000;fill-rule:evenodd;stroke:#000000;stroke-width:1.0000000px;stroke-linecap:butt;stroke-linejoin:miter;stroke-opacity:0.50196081"
       d="M 49.274121,27.850483 C 48.287817,28.836787 45.469878,25.113256 44.877175,27.484071 C 44.766414,27.927112 44.635633,26.663473 42.477241,27.414188 C 41.688923,27.688374 42.049937,28.350693 40.645180,27.414188 C 39.155404,26.421005 38.461992,26.131672 38.080295,27.658463 C 37.942173,28.210949 36.432986,25.444993 35.271134,27.536326 C 34.599362,28.745516 33.206085,27.848427 32.426720,27.291737 C 31.647355,26.735047 30.806873,27.776201 30.539844,27.842958 C 29.684503,28.056793 29.006048,27.557795 28.463508,27.232271 C 28.340989,27.158760 27.349624,28.033487 27.242134,28.087233 C 26.657499,28.379550 24.498877,26.546520 24.432974,26.499446 C 23.706396,25.980462 23.327491,27.934661 22.600913,28.453645 C 22.364907,28.622220 20.242462,26.917467 19.547478,26.743721 C 18.545135,26.493135 19.188079,29.193483 17.226867,27.232271 C 16.918723,26.924127 13.717723,29.082121 13.501676,28.148301 C 13.020937,26.070403 12.218005,27.968949 12.097096,27.781889"
       sodipodi:nodetypes="cssssssssssssssc" />
  </g>
</svg>
