<?xml version="1.0" encoding="UTF-8" standalone="no"?>
<!-- Created with Inkscape (http://www.inkscape.org/) -->
<svg
   xmlns:dc="http://purl.org/dc/elements/1.1/"
   xmlns:cc="http://creativecommons.org/ns#"
   xmlns:rdf="http://www.w3.org/1999/02/22-rdf-syntax-ns#"
   xmlns:svg="http://www.w3.org/2000/svg"
   xmlns="http://www.w3.org/2000/svg"
   xmlns:xlink="http://www.w3.org/1999/xlink"
   xmlns:sodipodi="http://sodipodi.sourceforge.net/DTD/sodipodi-0.dtd"
   xmlns:inkscape="http://www.inkscape.org/namespaces/inkscape"
   width="64.000000px"
   height="64.000000px"
   id="svg2"
   sodipodi:version="0.32"
   inkscape:version="0.46"
   sodipodi:docbase="/home/egore/.icons/Nerdy-Lines/scaleable/filesystems"
   sodipodi:docname="start-here.svg"
   inkscape:export-filename="/home/egore/.icons/Nerdy-Lines/64x64/filesystems/gnome-fs-regular.png"
   inkscape:export-xdpi="90.000000"
   inkscape:export-ydpi="90.000000"
   inkscape:output_extension="org.inkscape.output.svg.inkscape">
  <defs
     id="defs4">
    <inkscape:perspective
       sodipodi:type="inkscape:persp3d"
       inkscape:vp_x="0 : 32 : 1"
       inkscape:vp_y="0 : 1000 : 0"
       inkscape:vp_z="64 : 32 : 1"
       inkscape:persp3d-origin="32 : 21.333333 : 1"
       id="perspective43" />
    <linearGradient
       inkscape:collect="always"
       id="linearGradient7137">
      <stop
         style="stop-color:#000000;stop-opacity:1;"
         offset="0"
         id="stop7139" />
      <stop
         style="stop-color:#000000;stop-opacity:0;"
         offset="1"
         id="stop7141" />
    </linearGradient>
    <radialGradient
       inkscape:collect="always"
       xlink:href="#linearGradient7137"
       id="radialGradient4439"
       cx="52.812500"
       cy="59.260090"
       fx="52.812500"
       fy="59.260090"
       r="0.81111650"
       gradientTransform="matrix(-1.001687,9.323591,-4.179606,-0.449039,353.3979,-408.4483)"
       gradientUnits="userSpaceOnUse" />
    <radialGradient
       inkscape:collect="always"
       xlink:href="#linearGradient7137"
       id="radialGradient4447"
       cx="52.723061"
       cy="58.653427"
       fx="52.723061"
       fy="58.653427"
       r="3.9939080"
       gradientTransform="matrix(2.425211,-0.144477,3.000277e-2,0.503633,-76.90558,35.45250)"
       gradientUnits="userSpaceOnUse" />
    <radialGradient
       inkscape:collect="always"
       xlink:href="#linearGradient7137"
       id="radialGradient4455"
       cx="57.531250"
       cy="11.323844"
       fx="57.531250"
       fy="11.323844"
       r="0.80330400"
       gradientTransform="matrix(0.933640,-8.208300,4.043429,0.459736,-41.96940,479.9965)"
       gradientUnits="userSpaceOnUse" />
    <radialGradient
       inkscape:collect="always"
       xlink:href="#linearGradient7137"
       id="radialGradient4463"
       cx="57.562500"
       cy="12.657976"
       fx="57.562500"
       fy="12.657976"
       r="2.4832135"
       gradientTransform="matrix(2.662892,0.637974,-0.162420,0.678114,-93.66433,-32.15068)"
       gradientUnits="userSpaceOnUse" />
    <radialGradient
       inkscape:collect="always"
       xlink:href="#linearGradient7137"
       id="radialGradient4465"
       cx="57.500000"
       cy="12.557612"
       fx="57.500000"
       fy="12.557612"
       r="2.6639700"
       gradientTransform="matrix(2.240853,1.669463,-0.538794,0.723176,-64.58311,-92.01299)"
       gradientUnits="userSpaceOnUse" />
    <radialGradient
       inkscape:collect="always"
       xlink:href="#linearGradient7137"
       id="radialGradient4473"
       cx="43.156250"
       cy="3.9116392"
       fx="43.156250"
       fy="3.9116392"
       r="4.5011885"
       gradientTransform="matrix(2.130187,-0.240192,4.452517e-2,0.394677,-48.94882,11.19696)"
       gradientUnits="userSpaceOnUse" />
    <radialGradient
       inkscape:collect="always"
       xlink:href="#linearGradient7137"
       id="radialGradient4481"
       cx="43.081467"
       cy="2.1670878"
       fx="43.081467"
       fy="2.1670878"
       r="1.1794855"
       gradientTransform="matrix(1.218745,-2.013590,1.172051,0.709377,-11.88901,87.39860)"
       gradientUnits="userSpaceOnUse" />
    <radialGradient
       inkscape:collect="always"
       xlink:href="#linearGradient7137"
       id="radialGradient4483"
       cx="43.289906"
       cy="2.6436605"
       fx="43.289906"
       fy="2.6436605"
       r="1.8006885"
       gradientTransform="matrix(-1.926347,-1.475131,0.494118,-0.645259,124.8976,67.78287)"
       gradientUnits="userSpaceOnUse" />
    <radialGradient
       inkscape:collect="always"
       xlink:href="#linearGradient7137"
       id="radialGradient4491"
       cx="5.2266498"
       cy="5.2853961"
       fx="5.2266498"
       fy="5.2853961"
       r="0.58493865"
       gradientTransform="matrix(-0.473372,-10.73830,3.774461,-0.166441,-12.75663,63.11439)"
       gradientUnits="userSpaceOnUse" />
    <radialGradient
       inkscape:collect="always"
       xlink:href="#linearGradient7137"
       id="radialGradient4493"
       cx="4.8488812"
       cy="5.6804576"
       fx="4.8488812"
       fy="5.6804576"
       r="2.5285320"
       gradientTransform="matrix(-2.442797,0.136027,-4.593210e-2,-0.824854,16.77762,10.16660)"
       gradientUnits="userSpaceOnUse" />
    <radialGradient
       inkscape:collect="always"
       xlink:href="#linearGradient7137"
       id="radialGradient4501"
       cx="8.0101938"
       cy="59.403423"
       fx="8.0101938"
       fy="59.403423"
       r="2.5993768"
       gradientTransform="matrix(-2.139797,0.130256,-4.300120e-2,-0.705345,27.70481,100.7355)"
       gradientUnits="userSpaceOnUse" />
    <radialGradient
       inkscape:collect="always"
       xlink:href="#linearGradient7137"
       id="radialGradient4509"
       cx="7.9843631"
       cy="60.795616"
       fx="7.9843631"
       fy="60.795616"
       r="0.61618865"
       gradientTransform="matrix(0.502082,7.996971,-3.604781,0.226322,223.0347,-17.36666)"
       gradientUnits="userSpaceOnUse" />
    <radialGradient
       inkscape:collect="always"
       xlink:href="#linearGradient7137"
       id="radialGradient4517"
       cx="39.475018"
       cy="10.299868"
       fx="39.475018"
       fy="10.299868"
       r="2.3216695"
       gradientTransform="matrix(-2.207506,-0.487458,0.237993,-1.077769,123.6900,39.24955)"
       gradientUnits="userSpaceOnUse" />
    <radialGradient
       inkscape:collect="always"
       xlink:href="#linearGradient7137"
       id="radialGradient4525"
       cx="39.224655"
       cy="9.2050190"
       fx="39.224655"
       fy="9.2050190"
       r="1.2349580"
       gradientTransform="matrix(-1.613023,2.602916,-1.578787,-0.978274,116.6780,-83.90593)"
       gradientUnits="userSpaceOnUse" />
  </defs>
  <sodipodi:namedview
     id="base"
     pagecolor="#ffffff"
     bordercolor="#666666"
     borderopacity="1.0"
     inkscape:pageopacity="0.0"
     inkscape:pageshadow="2"
     inkscape:zoom="12.25"
     inkscape:cx="30.122449"
     inkscape:cy="32"
     inkscape:document-units="px"
     inkscape:current-layer="g1461"
     inkscape:window-width="1680"
     inkscape:window-height="980"
     inkscape:window-x="0"
     inkscape:window-y="25"
     showgrid="false" />
  <metadata
     id="metadata7">
    <rdf:RDF>
      <cc:Work
         rdf:about="">
        <dc:format>image/svg+xml</dc:format>
        <dc:type
           rdf:resource="http://purl.org/dc/dcmitype/StillImage" />
        <dc:title />
        <dc:date>2008-08-31</dc:date>
        <dc:creator>
          <cc:Agent>
            <dc:title>Christoph Brill</dc:title>
          </cc:Agent>
        </dc:creator>
        <cc:license
           rdf:resource="http://creativecommons.org/licenses/by-sa/3.0/" />
      </cc:Work>
      <cc:License
         rdf:about="http://creativecommons.org/licenses/by-sa/3.0/">
        <cc:permits
           rdf:resource="http://creativecommons.org/ns#Reproduction" />
        <cc:permits
           rdf:resource="http://creativecommons.org/ns#Distribution" />
        <cc:requires
           rdf:resource="http://creativecommons.org/ns#Notice" />
        <cc:requires
           rdf:resource="http://creativecommons.org/ns#Attribution" />
        <cc:permits
           rdf:resource="http://creativecommons.org/ns#DerivativeWorks" />
        <cc:requires
           rdf:resource="http://creativecommons.org/ns#ShareAlike" />
      </cc:License>
    </rdf:RDF>
  </metadata>
  <g
     inkscape:label="Ebene 1"
     inkscape:groupmode="layer"
     id="layer1">
    <g
       id="g1461">
      <path
         style="opacity:1;fill:#d2aa97;fill-opacity:1;fill-rule:nonzero;stroke:#000000;stroke-width:2.74699998;stroke-linecap:round;stroke-miterlimit:4;stroke-dasharray:none;stroke-dashoffset:0;stroke-opacity:0.50196078"
         id="path2397"
         d="M 10.026883,9.1194908 C 10.105718,9.2644951 10.192192,9.4056002 10.263389,9.5545038 C 10.377032,9.7921818 10.478784,10.035415 10.580935,10.278255 C 10.978016,11.222224 11.186691,11.774926 11.553868,12.785978 C 12.343824,14.961186 12.200362,14.601172 12.95177,16.981525 C 14.153691,20.737294 15.157758,24.552475 16.304433,28.324927 C 16.926173,30.370395 17.417697,31.824523 18.082659,33.842807 C 19.16532,37.027032 20.444332,40.137611 21.811023,43.208806 C 21.896072,43.399992 21.979023,43.592126 22.06617,43.782365 C 22.122816,43.90602 22.175112,44.032177 22.242362,44.1504 C 22.265195,44.190538 22.349137,44.297693 22.334416,44.253925 C 22.288517,44.117458 22.289686,43.851051 22.146391,43.86506 C 19.552536,44.118647 17.7332,45.214127 18.929344,44.508573 C 19.059051,44.24166 19.193543,43.97702 19.318464,43.707834 C 19.519013,43.275682 19.703345,42.836097 19.905658,42.404767 C 20.290989,41.583241 21.696663,38.699309 22.025208,38.04246 C 22.827228,36.439005 24.151707,33.886278 24.964931,32.310949 C 27.548778,27.277754 30.442874,22.414161 33.240895,17.499412 C 34.020692,16.086822 33.976887,16.191649 34.650418,14.887523 C 34.79591,14.605812 34.936861,14.321779 35.08037,14.039052 C 35.570661,13.073125 36.002317,12.026143 37.40251,11.816912 C 38.102106,11.712371 38.639296,12.503801 39.257689,12.847245 C 39.395306,13.258354 39.576992,13.657255 39.670539,14.080573 C 39.774274,14.549987 39.787523,15.03491 39.846566,15.51201 C 39.920993,16.113418 39.993286,16.715099 40.07095,17.316098 C 40.169448,18.078314 40.265566,18.840901 40.375048,19.601616 C 40.649431,21.508112 40.935833,23.187374 41.249342,25.095363 C 42.162594,30.408839 43.251034,35.689405 44.294927,40.978066 C 44.594976,42.455319 44.875395,43.936274 45.188061,45.410937 C 45.27101,45.802159 45.405246,46.483573 45.539498,46.89991 C 45.569318,46.992386 45.618715,47.077361 45.658324,47.166086 C 44.995797,45.406434 45.782998,46.884006 42.063945,47.304252 C 41.913415,47.321262 42.234425,47.050365 42.287006,46.908295 C 42.421156,46.545828 42.512491,46.168909 42.621387,45.798072 C 43.457811,42.949702 42.756032,45.197507 43.840781,41.851385 C 45.895261,35.817698 48.249989,29.892365 50.574157,23.959086 C 51.914611,20.530184 53.325901,17.124098 54.457293,13.618332 C 54.496754,13.447045 54.541083,13.276808 54.575674,13.104472 C 54.589147,13.037348 54.50799,13.2351 54.520712,13.302371 C 54.573104,13.579414 54.891407,13.859212 54.76618,14.11183 C 54.673442,14.298907 54.348888,14.090458 54.141332,14.067681 C 50.75177,13.695724 54.570968,14.018457 50.210484,13.695017 C 49.182641,13.637136 48.155578,13.563161 47.126955,13.521374 C 45.940777,13.473187 44.753699,13.449222 43.566787,13.425125 C 40.599857,13.36489 38.796144,13.351827 35.828067,13.389488 C 34.105701,13.411343 30.741886,13.503522 28.960125,13.54959 C 26.77925,13.63743 24.595566,13.686343 22.418715,13.854982 C 22.239485,13.868867 20.91981,13.96689 20.590795,14.088713 C 20.500771,14.122046 20.456809,14.226223 20.389815,14.294978 C 23.326437,12.79051 22.110176,14.130418 22.504413,12.46039 C 22.524699,12.374458 22.524485,12.636518 22.547661,12.721716 C 22.62551,13.007886 22.716587,13.290338 22.807022,13.572783 C 23.818834,16.732853 22.551581,12.637492 23.736423,16.507961 C 24.940843,20.517542 26.157617,24.523395 27.361591,28.533092 C 28.017697,30.732896 28.614845,32.95088 29.157306,35.18146 C 29.453524,36.297554 29.503642,37.456014 29.607748,38.600675 C 29.831994,40.789302 30.117497,42.97102 30.461429,45.143934 C 30.656599,46.201699 30.829825,47.264894 31.054779,48.316994 C 31.060115,48.313369 31.074512,48.311386 31.070788,48.306118 C 29.6504,46.297162 30.620889,47.040155 27.311723,48.262948 C 27.253708,48.284385 27.439727,48.228979 27.477823,48.180256 C 27.618013,48.00096 27.720682,47.795048 27.832546,47.596839 C 28.00896,47.284257 28.172429,46.964544 28.342371,46.648397 C 29.603099,44.186363 30.759522,41.671007 32.162125,39.283743 C 33.460612,37.073687 33.983788,36.373795 35.440027,34.215675 C 37.702887,30.877883 40.250769,27.749175 42.710711,24.558092 C 44.162501,22.674801 44.105034,22.73035 45.429117,20.91675 C 46.140271,19.877366 46.891776,18.857862 47.495661,17.74947 C 47.574775,17.604262 47.642974,17.453278 47.710937,17.302528 C 47.714428,17.294783 47.707052,17.268797 47.708596,17.277151 C 47.778777,17.656727 47.847441,18.036582 47.916864,18.416298 C 48.054155,18.609328 48.450657,18.792298 48.328737,18.995387 C 48.201367,19.207555 47.834223,18.975127 47.586932,18.965887 C 47.160049,18.949935 46.732995,18.938403 46.306219,18.91981 C 45.162587,18.869988 43.106645,18.766356 42.044015,18.672789 C 41.059926,18.586137 40.079365,18.463236 39.09704,18.358459 C 37.97986,18.213476 36.860825,18.082129 35.745499,17.923509 C 34.510058,17.747807 33.278541,17.545542 32.045215,17.355561 C 23.949811,16.108552 32.516972,17.43015 24.424219,16.159539 C 21.639451,15.722314 20.175536,15.504803 17.421013,15.088336 C 14.866462,14.688234 12.303211,14.353917 9.7357049,14.050875 L 11.015443,11.285396 C 13.481602,11.848598 15.949497,12.404867 18.430677,12.899031 C 20.657923,13.320832 23.093496,13.793081 25.323617,14.168829 C 30.184774,14.987874 35.077586,15.679886 40.00733,15.896903 C 42.411427,15.916209 43.073873,15.970613 45.357903,15.820461 C 46.653959,15.735258 47.42315,15.599604 48.662957,15.496532 C 49.022578,15.466635 49.392974,15.346857 49.743623,15.4321 C 50.250165,15.555242 50.685496,15.879168 51.156432,16.102702 C 51.309558,16.58992 51.556364,17.057115 51.615808,17.564358 C 51.656021,17.907503 51.156582,18.519798 50.986747,18.735285 C 50.140855,19.808547 49.184356,20.790919 48.318492,21.847264 C 44.715847,26.065155 41.04094,30.245771 37.928257,34.848475 C 36.724641,36.741948 35.980362,37.82635 34.940046,39.786728 C 33.70181,42.120066 32.741111,44.586796 31.865735,47.074375 C 31.689354,47.64277 31.498333,48.206772 31.33454,48.778922 C 31.280384,48.968095 31.359083,49.252255 31.188871,49.350983 C 30.233771,49.904971 29.238991,50.603929 28.135279,50.634592 C 27.323031,50.657157 27.253769,49.735387 27.188539,49.206204 C 27.20787,48.146643 27.093606,47.089267 26.994302,46.036025 C 26.744076,43.854658 26.482279,41.673935 26.076937,39.514706 C 26.06186,39.433959 25.82184,38.145525 25.787602,37.97205 C 25.670308,37.377758 25.506882,36.789061 25.498308,36.178737 C 25.348951,33.95578 24.924539,31.762085 24.397548,29.599895 C 24.244746,28.992201 24.098553,28.382806 23.939141,27.776812 C 23.04896,24.392833 22.028896,21.038791 20.752694,17.778862 C 20.137926,16.355387 20.171981,16.369152 19.528145,15.09591 C 19.399977,14.842446 18.747949,13.688389 18.698582,13.360012 C 18.625092,12.871171 18.393418,12.259379 18.70675,11.877031 C 19.285958,11.170243 20.277346,10.942497 21.062644,10.47523 C 21.264856,10.489493 21.467476,10.498836 21.66928,10.51802 C 22.271397,10.575255 22.870559,10.660482 23.472073,10.72374 C 25.554809,10.942771 27.643803,11.098106 29.737071,11.172467 C 30.794275,11.205722 31.851211,11.248986 32.908683,11.27223 C 38.982672,11.405743 45.062515,11.281217 51.128635,10.956104 C 51.962866,10.919735 52.796818,10.876251 53.63133,10.846996 C 54.195836,10.827206 56.341286,10.661354 57.015552,11.04914 C 58.099953,11.672804 58.489265,12.263463 58.33319,13.363908 C 58.29782,13.613294 58.141602,13.829818 58.045809,14.062773 C 57.744207,14.637925 57.257732,15.561402 56.983981,16.104768 C 55.630956,18.79038 54.376593,21.525575 53.133922,24.263374 C 52.724511,25.196576 52.303542,26.124792 51.90569,27.06298 C 49.86009,31.886773 48.070541,36.833794 46.794203,41.919617 C 46.504926,43.366473 46.286204,44.275971 46.12121,45.690487 C 46.07453,46.090688 46.063427,46.494243 46.033004,46.896007 C 46.009446,47.207106 46.225716,47.666758 45.95927,47.829069 C 42.443141,49.97099 42.843199,50.115326 41.949143,48.356075 C 41.883077,47.670328 41.858801,46.983241 41.810165,46.296013 C 41.70348,44.788558 41.556407,43.284001 41.372246,41.784037 C 41.283871,41.080578 41.203102,40.376122 41.107121,39.67366 C 40.473761,35.038221 39.622786,30.434514 38.714213,25.846311 C 38.168543,23.301448 37.63893,20.754629 37.002513,18.230459 C 36.859087,17.661601 36.714902,17.092772 36.555015,16.52832 C 36.450354,16.158831 36.31855,15.797499 36.209085,15.429404 C 36.19117,15.36916 36.185142,15.306002 36.173171,15.244301 C 38.235915,15.981436 37.110854,16.037214 39.0176,14.437917 C 39.174919,14.305965 38.718673,14.72085 38.586994,14.878398 C 38.375853,15.13102 38.184999,15.400029 37.991083,15.666103 C 37.551305,16.269527 36.584861,17.664195 36.204749,18.209495 C 35.25609,19.590026 34.545781,20.60742 33.618293,22.030618 C 31.366219,25.486342 29.254671,29.038415 27.39881,32.723796 C 26.927565,33.69424 26.434422,34.654352 25.985074,35.635127 C 25.566186,36.549416 25.17455,37.476222 24.794806,38.407449 C 23.948735,40.482229 23.205958,42.613749 22.790064,44.820304 C 22.478654,46.608054 22.785072,46.098597 19.126577,46.526332 C 18.910817,46.551558 18.872596,46.171969 18.772879,45.978979 C 18.715546,45.868019 18.691874,45.742494 18.659271,45.621927 C 18.568036,45.284539 18.518656,44.936643 18.426797,44.599505 C 17.599511,41.302269 16.515518,38.077709 15.569987,34.813836 C 13.918919,29.213082 12.344977,23.580208 10.269559,18.116983 C 9.5448272,16.361621 9.3889622,15.872698 8.5639242,14.259545 C 8.3404017,13.822504 8.0962569,13.396148 7.8494368,12.971828 C 7.5590347,12.472584 7.2481007,11.926393 6.821472,11.523025 L 10.026883,9.1194908 z" />
    </g>
  </g>
</svg>
